HIERARCHY
ROOT Model_Hips
{
	OFFSET 0.000000 96.915077 0.000000
	CHANNELS 6 Xposition Yposition Zposition Xrotation Yrotation Zrotation
	JOINT Model_Spine
	{
		OFFSET 0.000000 11.137703 -1.289900
		CHANNELS 3 Xrotation Yrotation Zrotation
		JOINT Model_Spine1
		{
			OFFSET 0.000000 12.993942 -1.504922
			CHANNELS 3 Xrotation Yrotation Zrotation
			JOINT Model_Spine2
			{
				OFFSET 0.000000 14.850220 -1.719911
				CHANNELS 3 Xrotation Yrotation Zrotation
				JOINT Model_Neck
				{
					OFFSET 0.000000 16.706543 -1.934903
					CHANNELS 3 Xrotation Yrotation Zrotation
					JOINT Model_Head
					{
						OFFSET 0.000000 10.471298 2.002100
						CHANNELS 3 Xrotation Yrotation Zrotation
						JOINT Model_HeadTop_End
						{
							OFFSET 0.000000 20.842606 3.985100
							CHANNELS 3 Xrotation Yrotation Zrotation
							End Site
							{
								OFFSET 0.000000 21.220154 0.000000
							}
						}
					}
				}
				JOINT Model_LeftShoulder
				{
					OFFSET 7.008500 14.768600 -1.919946
					CHANNELS 3 Xrotation Yrotation Zrotation
					JOINT Model_LeftArm
					{
						OFFSET 14.126271 -3.718048 0.029937
						CHANNELS 3 Xrotation Yrotation Zrotation
						JOINT Model_LeftForeArm
						{
							OFFSET 28.282801 0.000000 0.000000
							CHANNELS 3 Xrotation Yrotation Zrotation
							JOINT Model_LeftHand
							{
								OFFSET 26.204689 0.000000 0.000000
								CHANNELS 3 Xrotation Yrotation Zrotation
								End Site
								{
									OFFSET 26.204704 0.000000 0.000000
								}
							}
						}
					}
				}
				JOINT Model_RightShoulder
				{
					OFFSET -7.008500 14.768555 -1.949840
					CHANNELS 3 Xrotation Yrotation Zrotation
					JOINT Model_RightArm
					{
						OFFSET -14.126281 -3.718018 -0.029932
						CHANNELS 3 Xrotation Yrotation Zrotation
						JOINT Model_RightForeArm
						{
							OFFSET -28.283798 0.000000 -0.000001
							CHANNELS 3 Xrotation Yrotation Zrotation
							JOINT Model_RightHand
							{
								OFFSET -26.204193 0.000000 -0.000001
								CHANNELS 3 Xrotation Yrotation Zrotation
								End Site
								{
									OFFSET -26.204208 0.000000 -0.000001
								}
							}
						}
					}
				}
			}
		}
	}
	JOINT Model_LeftUpLeg
	{
		OFFSET 8.327700 -6.193199 -0.402800
		CHANNELS 3 Xrotation Yrotation Zrotation
		JOINT Model_LeftLeg
		{
			OFFSET 0.735802 -42.108742 -0.610721
			CHANNELS 3 Xrotation Yrotation Zrotation
			JOINT Model_LeftFoot
			{
				OFFSET -0.735806 -36.833748 -0.172876
				CHANNELS 3 Xrotation Yrotation Zrotation
				JOINT Model_LeftToeBase
				{
					OFFSET -0.565857 -11.977769 16.297714
					CHANNELS 3 Xrotation Yrotation Zrotation
					JOINT Model_LeftToe_End
					{
						OFFSET -0.111712 -0.312793 7.857784
						CHANNELS 3 Xrotation Yrotation Zrotation
						End Site
						{
							OFFSET -0.111712 -0.312793 7.857784
						}
					}
				}
			}
		}
	}
	JOINT Model_RightUpLeg
	{
		OFFSET -8.327700 -6.193199 -0.516500
		CHANNELS 3 Xrotation Yrotation Zrotation
		JOINT Model_RightLeg
		{
			OFFSET -0.735785 -42.108738 -0.434061
			CHANNELS 3 Xrotation Yrotation Zrotation
			JOINT Model_RightFoot
			{
				OFFSET 0.735776 -36.833748 -0.021630
				CHANNELS 3 Xrotation Yrotation Zrotation
				JOINT Model_RightToeBase
				{
					OFFSET 0.565817 -11.977745 15.903093
					CHANNELS 3 Xrotation Yrotation Zrotation
					JOINT Model_RightToe_End
					{
						OFFSET 0.111702 -0.312791 7.811342
						CHANNELS 3 Xrotation Yrotation Zrotation
						End Site
						{
							OFFSET 0.111702 -0.312791 7.811342
						}
					}
				}
			}
		}
	}
}
MOTION
Frames: 10
Frame Time: 0.016667
-16.839689 80.512772 356.924744 -178.651958 -46.331567 -169.482893 7.065134 -0.636494 -0.683868 14.136065 -1.320585 -0.090804 14.136079 -1.320564 -0.090808 -1.751039 -1.547971 0.631845 -1.751039 -1.547958 0.631847 -0.000001 -0.000001 -0.000002 -0.200631 3.841509 -11.345067 2.044255 -1.972135 -50.224147 -0.048981 -59.593394 0.106714 0.000000 -0.000000 0.000000 3.045228 8.534323 14.030366 -2.344594 29.316914 35.201852 0.199148 74.636557 -0.264023 -0.000001 0.000003 -0.000000 -10.249429 15.185515 26.280031 40.895724 1.733000 -1.145742 -18.736720 9.745242 -30.730186 -8.875135 0.171033 -0.425805 0.000001 -0.000000 -0.000000 -55.721581 2.421392 -13.650805 96.432080 3.444578 3.042080 -16.385043 -3.134920 -4.460157 -7.205865 0.038536 -0.078149 0.000000 0.000003 -0.000000 
-17.455547 82.031975 357.706879 -179.996740 -44.226332 -171.049288 6.738742 -0.607617 -0.516480 13.484216 -1.263019 0.208545 13.484223 -1.263009 0.208540 -1.751148 -1.449730 0.502749 -1.751152 -1.449737 0.502749 -0.000001 -0.000001 0.000001 -0.226458 4.436411 -10.320359 2.846615 -1.620716 -50.242387 -0.048720 -60.263128 0.110004 -0.000001 0.000001 -0.000000 3.213922 8.429129 13.120543 -1.070496 29.904890 34.040269 0.165589 72.173393 -0.237249 -0.000000 -0.000003 0.000002 -8.029597 15.948987 24.440054 36.952215 1.794857 -1.063319 -16.920969 12.630827 -29.612569 -8.114019 0.172591 -0.427673 0.000001 -0.000000 -0.000000 -54.287949 4.937144 -12.553191 94.865010 4.546687 3.016023 -14.193519 -7.040517 -4.528106 -7.316843 0.038774 -0.078380 -0.000001 0.000001 -0.000000 
-18.025797 83.544785 358.273529 -181.169757 -42.240154 -172.418372 6.424709 -0.580518 -0.356138 12.856708 -1.216000 0.462760 12.856709 -1.216017 0.462764 -1.728365 -1.356594 0.409986 -1.728367 -1.356616 0.409991 0.000000 0.000000 -0.000002 -0.246316 5.051054 -9.478610 3.579305 -1.173413 -50.423762 -0.051814 -60.776492 0.109617 -0.000003 0.000000 -0.000003 3.395535 8.190159 12.143952 0.243828 30.488506 33.018405 0.141401 70.027238 -0.218983 -0.000000 0.000002 0.000001 -5.488178 16.684552 22.545104 32.247946 2.142747 -0.920850 -14.612664 14.986038 -28.260065 -7.080120 0.174793 -0.430301 -0.000000 0.000000 -0.000000 -52.366289 7.755390 -11.352146 92.487202 5.755652 2.973920 -11.219443 -10.312943 -4.030750 -8.371205 0.022325 0.889443 -0.000000 0.000002 0.000000 
-18.480530 85.044167 358.685669 -182.136365 -40.428481 -173.573699 6.145055 -0.556162 -0.206593 12.297412 -1.179595 0.642588 12.297416 -1.179606 0.642592 -1.703081 -1.279655 0.386848 -1.703039 -1.279668 0.386865 -0.000001 0.000003 -0.000001 -0.273697 5.541324 -8.844621 3.977696 -0.561043 -50.688893 -0.057015 -60.903520 0.107061 -0.000000 0.000000 0.000000 3.584825 7.744617 11.185801 1.233396 30.750191 32.485531 0.125247 68.350550 -0.207806 -0.000002 -0.000001 0.000000 -3.354878 17.147320 20.779971 27.864272 2.922683 -0.580697 -12.531201 16.695731 -26.149676 -5.908173 0.176962 -0.433270 0.000000 0.000002 -0.000000 -49.718767 10.641294 -10.301647 88.789905 6.900363 2.906800 -7.887981 -12.155897 -2.169316 -12.263641 -0.394544 4.714290 0.000002 0.000001 0.000001 
-18.833622 86.466698 358.998840 -182.881525 -38.847240 -174.525444 5.902440 -0.531397 -0.070526 11.811896 -1.147379 0.765243 11.811887 -1.147385 0.765240 -1.691249 -1.220321 0.418575 -1.691248 -1.220321 0.418566 -0.000000 -0.000001 0.000000 -0.306717 5.926109 -8.359443 4.155540 0.192419 -50.956073 -0.062002 -60.890003 0.104602 0.000000 0.000002 -0.000003 3.773201 7.161964 10.275257 1.951250 30.649726 32.311255 0.114429 67.133417 -0.201504 0.000002 0.000001 -0.000001 -1.741230 17.323718 19.346135 24.297350 3.406649 -0.278348 -10.165295 17.603788 -24.625499 -4.665406 0.179456 -0.436488 0.000001 -0.000001 0.000000 -46.370889 13.457069 -9.494062 84.034754 7.721905 2.801469 -5.441135 -12.724532 0.565967 -15.919282 -1.331587 8.432832 0.000001 -0.000001 0.000002 
-19.039843 87.740845 359.258942 -183.458034 -37.479727 -175.362607 5.696856 -0.501533 0.046953 11.400168 -1.106912 0.840675 11.400181 -1.106914 0.840671 -1.718223 -1.187604 0.514681 -1.718231 -1.187608 0.514691 -0.000001 -0.000001 0.000000 -0.347889 6.157135 -7.991418 4.094650 1.142424 -51.106904 -0.063851 -60.933682 0.104637 -0.000001 0.000001 -0.000002 3.950537 6.464990 9.464853 2.264908 29.994707 32.544345 0.109539 66.507943 -0.200663 0.000000 -0.000001 -0.000002 -1.109001 17.132797 18.613299 22.410129 3.740597 -0.146935 -8.207183 17.437762 -22.933945 -3.442587 0.181785 -0.439672 0.000000 -0.000000 0.000001 -42.342743 15.970087 -8.945179 78.102202 7.894449 2.652515 -5.400024 -11.894003 3.836600 -21.431703 -1.756172 6.894936 -0.000000 0.000004 -0.000000 
-19.120344 88.846199 359.476776 -183.942062 -36.254467 -176.100486 5.503924 -0.469383 0.126719 11.013601 -1.055973 0.870494 11.013605 -1.055981 0.870496 -1.774454 -1.170590 0.635880 -1.774434 -1.170580 0.635884 0.000001 0.000001 -0.000000 -0.395157 6.293118 -7.687860 3.925463 2.120010 -51.168410 -0.064193 -60.955122 0.105686 -0.000003 -0.000001 0.000002 4.116651 5.725736 8.762439 2.364770 28.925896 32.996856 0.106350 66.208896 -0.201362 0.000001 0.000000 -0.000000 -1.413425 16.710835 18.432198 22.075192 3.910168 -0.115604 -6.732974 16.470545 -21.309596 -3.174425 0.202393 -1.213081 0.000000 0.000001 -0.000001 -38.043997 18.168177 -8.746564 71.935464 7.345274 2.482394 -8.390211 -10.561623 6.750502 -22.200852 -1.057461 4.060287 0.000000 -0.000004 0.000000 
-19.086079 89.731087 359.627533 -184.352024 -35.149810 -176.739573 5.318007 -0.433638 0.162109 10.640910 -0.992722 0.848910 10.640909 -0.992716 0.848908 -1.862724 -1.164513 0.755339 -1.862724 -1.164513 0.755341 0.000000 0.000000 -0.000000 -0.447603 6.371522 -7.382574 3.776890 2.977883 -51.094804 -0.063238 -60.956734 0.107719 0.000002 -0.000001 0.000001 4.265785 5.021100 8.209612 2.408709 27.488615 33.511818 0.102139 66.069226 -0.201159 0.000001 -0.000005 -0.000001 -2.941834 16.047045 18.952911 23.904665 3.645565 -0.248176 -5.840719 14.568542 -19.987710 -4.156132 0.334495 -2.970724 0.000000 0.000000 -0.000000 -33.131646 18.314631 -9.329094 65.626261 5.739457 2.317076 -14.591125 -9.156166 7.721720 -16.888736 -0.331570 2.212772 0.000000 0.000001 0.000000 
-18.928185 90.445717 359.812408 -184.680351 -34.138378 -177.246633 5.156527 -0.391323 0.149173 10.317012 -0.913506 0.799425 10.317011 -0.913491 0.799417 -1.971042 -1.160034 0.845015 -1.971043 -1.160044 0.845019 0.000001 0.000000 0.000001 -0.503544 6.408212 -7.084843 3.635864 3.703748 -50.988247 -0.062019 -60.885303 0.109685 0.000001 -0.000001 0.000003 4.403443 4.361351 7.751951 2.335665 25.788008 34.069202 0.096850 65.919979 -0.199908 0.000001 0.000001 0.000002 -6.090948 14.903731 20.294176 28.777954 2.591475 -0.708199 -5.921249 12.300615 -18.888997 -4.479274 0.455227 -3.902426 0.000000 0.000000 0.000000 -28.534575 18.228846 -9.900337 58.528314 4.452830 2.138915 -19.407832 -8.064383 8.469568 -11.567675 -0.025146 0.695906 0.000000 -0.000001 0.000000 
-18.645119 90.973923 360.103668 -184.925009 -33.195969 -177.610149 5.040511 -0.342561 0.111679 10.083846 -0.813785 0.718794 10.083845 -0.813791 0.718798 -2.089323 -1.145111 0.862286 -2.089308 -1.145120 0.862282 0.000001 0.000001 -0.000000 -0.561203 6.437484 -6.763776 3.565185 4.196042 -50.908870 -0.061510 -60.671963 0.111475 -0.000000 0.000000 0.000000 4.533145 3.773741 7.352063 2.177334 23.927865 34.601397 0.089079 65.542441 -0.196633 -0.000000 -0.000001 0.000001 -9.746478 13.509717 21.735901 35.049430 1.601118 -1.109385 -8.792882 10.389316 -18.378856 -0.293110 0.187658 -0.448101 -0.000000 0.000002 -0.000000 -24.954759 17.903188 -10.383803 51.978990 3.410665 1.922708 -22.445747 -7.478061 8.648492 -6.446219 0.032238 0.093866 0.000000 0.000000 0.000000 
